<?xml version="1.0" encoding="UTF-8"?><svg id="uuid-72d1e36b-c304-40b9-8ee8-c230951405ec" xmlns="http://www.w3.org/2000/svg" viewBox="0 0 265 720"><path d="m265,720H0C0,480,0,240,0,0c88.333,0,176.667,0,265,0v720Z" style="fill:#0098d0;"/><path d="m118.451,313.546c1.285.048,2.57.137,3.856.137,30.02.009,60.039.009,90.059.01,1.153,0,2.306,0,3.69,0v12.381c.46.452.494,1.035.495,1.624.016,5.916.032,11.831-.009,17.747-.012,1.688-.397,2.036-2.071,2.1-.416.016-.833.014-1.25.014-53.574.001-107.148.003-160.722-.013-.922,0-1.941.294-2.724-.521h-9.63v-8.071h-6.917c.613-.726.971-1.195,1.375-1.621,1.6-1.684,3.258-3.318,4.796-5.057.393-.445.58-1.203.598-1.825.071-2.58.068-5.162.037-7.743-.014-1.196.354-2.138,1.211-3.007,3.324-3.367,6.585-6.796,9.883-10.189,3.065-3.154,6.146-6.291,9.219-9.436,3.362-3.441,6.733-6.873,10.084-10.325,2.971-3.06,5.932-6.13,8.876-9.216,3.813-3.998,7.574-8.044,11.414-12.015,2.568-2.656,5.267-5.184,7.845-7.831,1.994-2.047,3.89-4.19,5.829-6.29.028-.031.053-.065.082-.094,2.22-2.234,4.438-4.468,6.661-6.7.55-.552,1.112-1.093,1.668-1.639.208-1.82,1.704-2.687,2.883-3.734,1.067-.947,2.052-1.925,2.883-3.09,1.165-1.634,3.058-2.578,4.165-4.286.222-.343.58-.6.656-1.124-.511-.331-1.103-.174-1.651-.174-22.248-.01-44.496-.005-66.744-.019-.845,0-1.773.249-2.485-.494h-12.413v-32.937h175.963v12.156c.368.58.48,1.21.479,1.898-.013,5.706.003,11.413-.014,17.119-.006,1.885-.369,2.243-2.294,2.245-13.329.014-26.657.025-39.985-.019-1.664-.005-2.855.41-3.978,1.757-1.561,1.873-3.517,3.396-5.16,5.231-2.936,3.28-6.046,6.412-9.172,9.505-2.243,2.219-4.351,4.572-6.662,6.735-2.387,2.234-4.677,4.607-6.789,7.126-.08.096-.16.194-.253.276-2.821,2.469-5.281,5.302-7.917,7.956-2.047,2.062-4.211,4.014-6.082,6.254-.824.987-1.729,1.919-2.777,2.687-.372.273-.732.573-1.005.933-1.863,2.459-4.402,4.303-6.181,6.839-.407.58-1.029.963-1.557,1.432-2.705,2.406-5.153,5.069-7.601,7.73-.084.092-.152.202-.247.282-2.549,2.146-4.493,4.894-7.024,7.056-.73.623-1.357,1.334-1.956,2.088-.854,1.075-1.836,2.04-2.924,2.89-.883.69-1.628,1.493-2.053,2.537.578.567,1.193.382,1.747.383,6.664.015,13.328.006,19.993.014.616,0,1.26-.103,1.803.325Z" style="fill:#fec900;"/><path d="m42.357,581.857c.698-4.067,2.84-7.601,4.172-11.418,1.455-4.172,4.304-7.467,6.159-11.355.487-1.02,1.403-1.843,2.154-2.729,2.193-2.587,4.31-5.247,6.633-7.713,1.845-1.957,3.837-3.814,5.963-5.458,3.869-2.991,7.883-5.774,12.253-8.041,4.328-2.245,8.79-4.101,13.452-5.499.124-.024.262-.002.358-.114,2.714-.619,5.427-1.239,8.141-1.858.15-.053.319-.035.462-.116,2.001-.215,4.003-.43,6.004-.645.516-.127,1.062.099,1.569-.133,11.532-.002,23.065-.059,34.597.015,6.091.039,12.124.786,17.943,2.663,3.823,1.233,7.682,2.47,11.306,4.172,4.3,2.02,8.56,4.208,12.264,7.294,2.197,1.831,4.619,3.416,6.671,5.391,2.47,2.378,4.657,5.051,6.964,7.598.919,1.015,1.833,2.034,2.749,3.051.969.562,1.716,1.43,2.16,2.368.973,2.056,2.497,3.736,3.591,5.697.101.181.252.339.312.539,1.158,3.895,3.397,7.316,4.859,11.079.351.902.577,1.833.7,2.778.347,2.656,1.365,5.151,1.844,7.768.523,2.859.945,5.727.941,8.661-.033,23.245-.018,46.491-.019,69.736q0,3.465-3.475,3.47c-52.698.002-105.396,0-158.094.004-1.046,0-2.088.029-3.035-.524h-11.815c-.045-.58-.11-1.025-.11-1.47.01-22.487,0-44.973.069-67.46.009-2.944.416-5.887.639-8.83l.097-.014-.098-.004.12-.851c.04-.179-.013-.374.09-.542.462-2.481.925-4.962,1.387-7.443l.026-.065Z" style="fill:#fec900;"/><path d="m38.652,462.613c-2.459-1.21-4.898-2.464-7.382-3.621-3.795-1.769-7.621-3.471-11.685-5.317.408-.31.656-.578.962-.72,5.876-2.719,11.752-5.436,17.641-8.127,4.231-1.934,8.491-3.804,12.717-5.748,5.656-2.602,11.283-5.267,16.938-7.87,5.431-2.5,10.886-4.947,16.323-7.434,4.944-2.261,9.877-4.546,14.816-6.818,6.262-2.879,12.537-5.73,18.784-8.641,5.229-2.436,10.409-4.976,15.641-7.405,3.991-1.853,8.043-3.576,12.044-5.407,3.775-1.728,7.514-3.534,11.279-5.283,3.953-1.836,7.919-3.643,11.877-5.468,3.882-1.791,7.759-3.591,11.641-5.382,2.111-.974,4.232-1.929,6.34-2.909,2.973-1.382,5.928-2.804,8.91-4.167,5.551-2.537,11.121-5.033,16.671-7.574.941-.431,1.815-1.008,2.732-1.496.275-.146.589-.219,1.156-.423v18.234c.381.327.468.762.473,1.238.006.542.011,1.083.011,1.625,0,52.367,0,104.735,0,157.102,0,.5.007,1-.009,1.5-.057,1.818-.822,2.293-2.507,1.5-1.732-.816-3.434-1.694-5.192-2.458-6.22-2.704-12.362-5.586-18.495-8.472-5.118-2.408-10.296-4.689-15.38-7.172-3.887-1.899-7.92-3.491-11.809-5.389-4.072-1.987-8.233-3.781-12.324-5.727-3.979-1.893-8.015-3.674-12.025-5.504-3.855-1.76-7.695-3.566-11.547-5.335-3.967-1.822-7.9-3.72-11.894-5.488-4.025-1.782-7.992-3.707-11.989-5.556-3.624-1.677-7.213-3.435-10.88-5.023-3.319-1.437-6.585-2.994-9.852-4.549-5.218-2.484-10.492-4.847-15.751-7.242-7.759-3.534-15.396-7.334-23.249-10.663-1.453-.616-2.738-1.586-4.278-2.033-.347-.101-.691-.322-.711-.778Z" style="fill:#fec900;"/><path d="m85.724,95.743c4.41.037,8.82.104,13.23.105,37.667.008,75.334.004,113.001.003,1.317,0,2.634,0,4.118,0v12.614c.44.461.477,1.041.478,1.631.013,5.749.035,11.498-.013,17.246-.014,1.689-.494,2.134-2.168,2.2-.833.033-1.666.018-2.499.018-44.949,0-89.898,0-134.847.006-.86,0-1.749-.146-2.532.244-.608.738-.422,1.562-.422,2.332-.012,15.413-.007,30.827-.009,46.24,0,1.916.034,3.833-.02,5.749-.047,1.631-.502,2.032-2.08,2.17-5.239.458-10.487.217-15.732.23-1.358.003-2.751-.039-4.023-.671h-12.049V38.987h33.071c.043.588.111,1.069.109,1.55-.012,3.122-.047,6.245-.051,9.367,0,.534.113,1.067.174,1.601.802.616.588,1.511.59,2.315.019,9.75.01,19.5.012,29.249,0,3.292-.007,6.583.006,9.875.002.617-.087,1.258.278,1.809.468.501,1.076.424,1.65.428,2.625.021,5.25-.002,7.875.014.67.004,1.346-.004,1.856.546Z" style="fill:#fec900;"/><path d="m38.652,462.613c2.743,1.186,5.494,2.355,8.227,3.565,1.898.84,3.769,1.741,5.657,2.607,4.228,1.939,8.466,3.856,12.685,5.814,5.392,2.501,10.761,5.049,16.155,7.545,4.031,1.865,8.096,3.658,12.128,5.523,3.96,1.832,7.885,3.74,11.847,5.567,5.582,2.575,11.193,5.087,16.776,7.66,5.998,2.765,11.979,5.569,17.966,8.357,4.105,1.912,8.201,3.841,12.314,5.734,3.812,1.755,7.647,3.458,11.46,5.21,4.076,1.873,8.134,3.785,12.207,5.665,3.698,1.707,7.41,3.384,11.107,5.092,4.298,1.986,8.582,4.003,12.882,5.986,3.358,1.548,6.736,3.053,10.093,4.602,1.471.679,2.909,1.43,4.371,2.129.4.191.831.316,1.432.539.031-.67.077-1.185.077-1.7-.005-53.45-.013-106.899-.02-160.349,0-.374.026-.747.04-1.121.43-.136.88-.229,1.286-.416,3.361-1.546,6.713-3.113,10.073-4.661.247-.114.54-.128.965-.223v180.97c-1.7-.73-3.342-1.394-4.949-2.134-2.19-1.01-4.343-2.097-6.529-3.117-4.786-2.233-9.573-4.465-14.377-6.658-3.932-1.795-7.905-3.502-11.832-5.308-3.775-1.736-7.502-3.578-11.275-5.319-4.113-1.898-8.263-3.714-12.38-5.602-2.643-1.212-5.25-2.501-7.884-3.732-5.763-2.691-11.528-5.381-17.304-8.043-2.568-1.184-5.181-2.27-7.748-3.456-3.963-1.83-7.893-3.731-11.857-5.558-3.927-1.81-7.88-3.562-11.817-5.35-1.702-.773-3.391-1.578-5.089-2.36-2.946-1.357-5.899-2.696-8.84-4.063-2.901-1.349-5.786-2.735-8.686-4.087-4.595-2.142-9.195-4.271-13.795-6.401-4.453-2.062-8.904-4.126-13.363-6.175-3.663-1.684-7.338-3.342-11.004-5.021-3.176-1.454-6.344-2.926-9.52-4.379-2.042-.934-4.101-1.831-6.133-2.785-.531-.249-.99-.648-1.597-1.055,2.227-1.244,4.238-2.368,6.25-3.491Z" style="fill:#005776;"/><path d="m51.953,668.537c8.829-.014,17.658-.039,26.487-.04,44.86-.004,89.72-.002,134.579-.002h2.893c.055-.405.125-.682.125-.959-.009-24.201.006-48.401-.067-72.602-.011-3.746-.568-7.465-1.819-11.041-.204-.584-.36-1.2-.434-1.813-.541-4.466-2.41-8.439-4.521-12.327-.296-.545-.612-1.113-.742-1.709-.495-2.272-1.902-4.03-3.154-5.887-.53-.786-.91-1.671-1.401-2.486-.552-.918-1.151-1.807-1.73-2.709.33.145.704.233.984.445,3.438,2.597,6.224,5.874,9.097,9.03,2,2.198,3.692,4.708,5.304,7.218,1.634,2.543,3.005,5.255,4.481,7.899.202.362.376.745.515,1.135,1.311,3.674,2.724,7.317,3.871,11.042.667,2.167,1.042,4.45,1.306,6.709,1.224,10.447.753,20.945.785,31.425.048,15.787.017,31.575.014,47.362,0,.574-.048,1.148-.088,2.029-58.61,0-117.134,0-175.784-.001-.078-.666-.181-1.141-.183-1.616-.012-3.124.024-6.249-.023-9.372-.009-.579-.324-1.154-.498-1.731Z" style="fill:#005776;"/><path d="m52.204,185.861c1.62.023,3.24.074,4.859.063,5.039-.034,10.077-.09,15.115-.145.362-.004.723-.075,1.228-.131v-56.777h142.665v-20.405c3.539.014,7.079.024,10.618.049.526.004,1.051.081,1.685.134v32.759H85.538v56.922h-32.86c-.058-.495-.167-1.01-.17-1.525-.015-3.124.009-6.249-.017-9.373-.004-.524-.187-1.047-.288-1.57Z" style="fill:#005776;"/><path d="m118.451,313.546c-.536.044-1.072.127-1.608.128-6.372.002-12.745-.008-19.117-.015-1.276-.001-2.551,0-4.157,0,.675-.96,1.19-1.943,1.932-2.704,2.373-2.434,4.867-4.751,7.243-7.181,2.237-2.287,4.353-4.692,6.579-6.99,2.167-2.237,4.431-4.381,6.607-6.61,2.465-2.523,4.882-5.094,7.315-7.647.344-.361.649-.761,1.002-1.114,3.942-3.937,7.917-7.841,11.827-11.81,2.62-2.66,5.137-5.422,7.723-8.117,2.788-2.905,5.585-5.802,8.41-8.67,2.158-2.191,4.401-4.299,6.545-6.503,2.49-2.56,4.897-5.199,7.371-7.775.863-.898,1.827-1.697,2.725-2.563.506-.488,1.075-.956,1.432-1.545.695-1.146,1.658-1.451,2.937-1.448,13.705.029,27.411.018,41.116.018h1.727c0-6.948,0-13.842,0-20.735.526.081,1.052.229,1.579.232,3.124.014,6.247-.01,9.371-.01.405,0,.811.062,1.348.107v33.066c-.458.026-.861.069-1.264.069-13.745.001-27.49.005-41.235-.017-.92-.001-1.692.137-2.367.831-1.94,1.993-3.938,3.931-5.881,5.92-2.552,2.613-5.065,5.264-7.616,7.878-.725.743-1.57,1.37-2.279,2.125-2.356,2.508-4.667,5.058-7.016,7.574-.479.513-1.076.916-1.569,1.418-2.673,2.722-5.325,5.465-7.997,8.188-.64.652-1.365,1.221-1.99,1.885-2.475,2.632-4.924,5.287-7.387,7.93-.225.242-.49.446-.723.682-1.428,1.446-2.853,2.896-4.277,4.345-.058.059-.095.138-.154.196-2.274,2.243-4.563,4.471-6.818,6.732-1.054,1.057-2.014,2.21-3.069,3.266-2.435,2.437-4.919,4.825-7.34,7.275-.418.423-.623,1.055-.927,1.59Z" style="fill:#005776;"/><path d="m49.776,347.026c1.706-.013,3.412-.038,5.118-.038,52.405-.003,104.811-.003,157.216-.003h3.945c0-7.034,0-13.973,0-20.91,1.701.062,3.401.151,5.102.177,1.999.031,3.998-.002,5.997.017.479.005.958.106,1.367.154v32.907H52.52v-7.786h-6.015c-.068-.104-.137-.207-.205-.311.539-.688,1.064-1.388,1.621-2.06.603-.728,1.236-1.432,1.856-2.146Z" style="fill:#005776;"/><path d="m52.512,233.046c.457-.015.914-.044,1.371-.044,22.621-.002,45.242-.001,67.862-.001.995,0,1.99,0,3.252,0-1.127,1.358-2.07,2.631-3.152,3.772-2.819,2.97-5.698,5.882-8.557,8.813-.142.146-.322.255-.483.38-1.529-.078-3.058-.221-4.588-.223-17.982-.017-35.964-.013-53.945-.015-.49,0-.98,0-1.76,0v-12.683Z" style="fill:#005776;"/><path d="m85.724,95.743h-12.212c0-.72,0-1.366,0-2.011-.006-12.413-.01-24.826-.019-37.239-.001-1.662-.023-3.325-.035-4.987,3.938,0,7.876,0,12.043,0,0,.92,0,1.609,0,2.297.003,13.239.003,26.477.019,39.716,0,.742.133,1.483.204,2.225Z" style="fill:#005776;"/><path d="m109.676,526.776c-.524.044-1.048.089-1.57.133.524-.045,1.047-.089,1.57-.133Z" style="fill:#005776;"/><path d="m102.103,527.554c-.155.039-.31.078-.464.117.156-.039.31-.078.464-.117Z" style="fill:#005776;"/><path d="m40.944,589.366c-.03.182-.061.364-.091.544.031-.183.061-.364.091-.544Z" style="fill:#005776;"/><path d="m93.5,529.529c-.12.038-.241.077-.359.115.121-.039.24-.077.359-.115Z" style="fill:#005776;"/><polygon points="40.735 590.759 40.779 590.751 40.736 590.777 40.735 590.759" style="fill:#005776;"/><polygon points="42.357 581.857 42.393 581.915 42.331 581.923 42.357 581.857" style="fill:#005776;"/><path d="m181.314,635.405c-.288,0-.576,0-.864,0-.049,0-.098,0-.146.001-.286,0-.572.001-.859.002-.048,0-.097.002-.145.003-.284.001-.568.002-.852.003-.049,0-.098,0-.148,0-.283,0-.566,0-.848,0-.052,0-.105,0-.157,0-.281,0-.561,0-.842,0-.053,0-.105,0-.158,0-.282,0-.563,0-.845,0-.051,0-.102,0-.153,0-.282,0-.564,0-.847,0-.051,0-.102,0-.153,0-.282,0-.564,0-.847,0-.051,0-.102,0-.153,0-.282,0-.564,0-.847,0-.051,0-.102,0-.153,0-.282,0-.564,0-.847,0-.051,0-.102,0-.153,0-.282,0-.564,0-.847,0h-.153c-.282,0-.564,0-.847,0-.051,0-.102,0-.153,0-.282,0-.564,0-.847,0-.051,0-.102,0-.153,0-.282,0-.564,0-.847,0-.051,0-.102,0-.153,0-.282,0-.564,0-.847,0-.051,0-.102,0-.153,0-.282,0-.564,0-.847,0-.051,0-.102,0-.153,0-.282,0-.564,0-.847,0-.051,0-.102,0-.153,0-.282,0-.564,0-.847,0h-.153c-.282,0-.564,0-.847,0-.051,0-.102,0-.153,0-.282,0-.564,0-.847,0-.051,0-.102,0-.153,0-.282,0-.564,0-.847,0-.051,0-.102,0-.153,0-.282,0-.564,0-.847,0h-.153c-.282,0-.564,0-.847,0-.051,0-.102,0-.153,0-.282,0-.564,0-.847,0-.051,0-.102,0-.153,0-.282,0-.564,0-.847,0-.051,0-.102,0-.153,0-.282,0-.564,0-.847,0h-.153c-.282,0-.564,0-.847,0-.051,0-.102,0-.153,0-.282,0-.564,0-.847,0-.051,0-.102,0-.153,0-.282,0-.564,0-.847,0-.051,0-.102,0-.153,0-.282,0-.564,0-.847,0-.051,0-.102,0-.153,0-.282,0-.564,0-.847,0-.051,0-.102,0-.153,0-.282,0-.564,0-.847,0-.051,0-.102,0-.153,0-.282,0-.564,0-.847,0h-.153c-.282,0-.564,0-.847,0-.051,0-.102,0-.153,0-.282,0-.564,0-.847,0-.051,0-.102,0-.153,0-.282,0-.564,0-.847,0-.051,0-.102,0-.153,0-.282,0-.564,0-.847,0h-.153c-.282,0-.564,0-.847,0-.051,0-.102,0-.153,0-.282,0-.564,0-.847,0-.051,0-.102,0-.153,0-.282,0-.564,0-.847,0-.051,0-.102,0-.153,0-.282,0-.564,0-.847,0h-.153c-.282,0-.564,0-.847,0-.051,0-.102,0-.153,0-.282,0-.564,0-.847,0-.051,0-.102,0-.153,0-.282,0-.564,0-.847,0h-.153c-.282,0-.564,0-.847,0-.051,0-.102,0-.153,0-.282,0-.564,0-.847,0-.051,0-.102,0-.153,0-.282,0-.564,0-.847,0-.051,0-.102,0-.153,0-.282,0-.564,0-.847,0h-.153c-.282,0-.564,0-.847,0-.051,0-.102,0-.153,0-.282,0-.564,0-.847,0-.051,0-.102,0-.153,0-.282,0-.564,0-.847,0-.051,0-.102,0-.153,0-.282,0-.564,0-.847,0h-.153c-.282,0-.564,0-.847,0-.051,0-.102,0-.153,0-.282,0-.564,0-.847,0-.051,0-.102,0-.153,0-.282,0-.564,0-.847,0-.051,0-.102,0-.153,0-.282,0-.564,0-.847,0-.051,0-.102,0-.153,0-.282,0-.564,0-.847,0-.051,0-.102,0-.153,0-.282,0-.564,0-.847,0-.051,0-.102,0-.153,0-.282,0-.564,0-.846,0-.051,0-.103,0-.154,0-.283,0-.566,0-.849,0-.049,0-.098,0-.148,0-.286,0-.572,0-.858,0-.047,0-.094,0-.14,0-.284,0-.569-.001-.853-.002-.051,0-.102,0-.153,0-.282,0-.564,0-.846-.001-.051,0-.102,0-.153,0-.282,0-.563,0-.845,0-.053,0-.105,0-.158,0-.281,0-.563,0-.844,0-.051,0-.102,0-.153,0-.282,0-.564,0-.847,0-.051,0-.102,0-.153,0h-.847c-.051,0-.102,0-.153,0-.282,0-.564,0-.847,0-.051,0-.102,0-.153,0-.282,0-.564,0-.847,0-.051,0-.102,0-.153,0-.282,0-.564,0-.847,0-.051,0-.102,0-.153,0h-.847c-.051,0-.102,0-.153,0-.282,0-.564,0-.847,0-.051,0-.102,0-.153,0-.282,0-.564,0-.847,0-.051,0-.102,0-.153,0h-.847c-.051,0-.102,0-.153,0-.282,0-.564,0-.847,0-.051,0-.102,0-.153,0-.282,0-.564,0-.847,0-.051,0-.102,0-.153,0-.282,0-.564,0-.847,0-.051,0-.102,0-.153,0h-.847c-.051,0-.102,0-.153,0-.282,0-.564,0-.847,0-.051,0-.102,0-.153,0-.282,0-.564,0-.847,0-.051,0-.102,0-.153,0-.282,0-.564,0-.847,0-.051,0-.102,0-.153,0h-.847c-.051,0-.102,0-.153,0-.282,0-.564,0-.847,0-.051,0-.102,0-.153,0-.282,0-.564,0-.847,0-.051,0-.102,0-.153,0-.282,0-.564,0-.847,0-.051,0-.102,0-.153,0-.282,0-.564,0-.847,0-.051,0-.102,0-.153,0-.282,0-.564,0-.847,0-.051,0-.102,0-.153,0-.282,0-.564,0-.847,0-.051,0-.102,0-.153,0-.282,0-.564,0-.847,0-.051,0-.101,0-.152,0h-.849c-.05,0-.1,0-.15,0-.283,0-.567,0-.85,0-.05,0-.1,0-.149,0-.284,0-.568,0-.851,0-.05,0-.099,0-.149,0-.285-.001-.57-.003-.855-.004-.383-.053-.766-.044-1.15-.006-.279,0-.558.001-.837.002-.358-.081-.759.07-1.084-.197-.465-.416-.403-.983-.404-1.515-.015-7.248-.117-14.497.033-21.742.104-4.998,1.351-9.781,3.534-14.299.217-.45.511-.879.599-1.37.485-2.703,2.191-4.737,3.795-6.794.8-1.025,1.294-2.276,2.19-3.171,2.145-2.14,4.257-4.322,6.708-6.139,2.042-1.514,4.157-2.892,6.429-4.037,3.595-1.811,7.383-3.012,11.348-3.665,3.007-.495,6.039-.538,9.08-.529,8.58.027,17.161.069,25.741-.01,6.579-.061,12.781,1.354,18.682,4.221,1.014.492,2.04.922,2.708,1.889,2.823,3.292,4.294,7.178,5.47,11.318,1.093,3.846,1.749,7.664,1.733,11.65-.044,11.071-.011,22.143-.021,33.215,0,.349-.14.698-.214,1.047-.188.157-.441.056-.642.162-.24-.01-.481-.021-.721-.031h-.108Z" style="fill:#0098d0;"/><path d="m175.817,578.046c-2.66-1.152-5.265-2.461-7.994-3.419-4.223-1.481-8.61-2.151-13.111-2.128-9.871.051-19.742-.022-29.612.059-4.482.037-8.867.851-13.015,2.603-2.407,1.016-4.836,2.066-7.045,3.439-2.063,1.282-3.859,2.996-5.749,4.55-.835.686-1.705,1.365-2.392,2.187-1.407,1.682-2.71,3.452-4.041,5.196-1.469,1.925-2.551,3.998-3.394,6.32-.904,2.492-1.889,4.956-2.718,7.487-.844,2.575-1.122,5.224-1.163,7.866-.117,7.412-.048,14.826-.049,22.24,0,.164.036.327.064.559.278.129.569.265.86.4h-12.964c0-1.046,0-1.83,0-2.613,0-11.079.043-22.158-.019-33.236-.023-4.174.995-8.088,2.034-12.096,1.203-4.641,3.853-8.363,6.496-12.075,2.331-3.274,5.396-6.021,8.738-8.29,3.679-2.499,7.676-4.379,11.993-5.664,4.435-1.321,8.923-1.433,13.46-1.43,8.788.005,17.577.032,26.365-.012,4.369-.022,8.646.581,12.763,1.969,3.9,1.314,7.479,3.255,10.844,5.719,2.654,1.943,4.896,4.247,7.127,6.582,1.032,1.081,1.693,2.516,2.523,3.79Z" style="fill:#005776;"/><path d="m87.293,635.402c.384.002.767.004,1.15.006-.384-.002-.767-.004-1.15-.006Z" style="fill:#005776;"/><path d="m182.143,635.437c.215-.054.429-.108.643-.162-.215.054-.429.108-.643.162Z" style="fill:#005776;"/><polygon points="160.296 635.414 160.373 635.346 160.45 635.413 160.373 635.449 160.296 635.414" style="fill:#005776;"/><polygon points="91.298 635.413 91.374 635.345 91.449 635.413 91.373 635.449 91.298 635.413" style="fill:#005776;"/><polygon points="92.298 635.413 92.374 635.346 92.45 635.413 92.373 635.449 92.298 635.413" style="fill:#005776;"/><polygon points="93.296 635.414 93.373 635.346 93.45 635.413 93.373 635.449 93.296 635.414" style="fill:#005776;"/><polygon points="94.296 635.414 94.373 635.346 94.45 635.413 94.373 635.449 94.296 635.414" style="fill:#005776;"/><polygon points="95.296 635.414 95.373 635.346 95.45 635.413 95.373 635.449 95.296 635.414" style="fill:#005776;"/><polygon points="96.296 635.414 96.373 635.346 96.45 635.413 96.373 635.449 96.296 635.414" style="fill:#005776;"/><polygon points="97.296 635.414 97.373 635.346 97.45 635.413 97.373 635.449 97.296 635.414" style="fill:#005776;"/><polygon points="98.296 635.414 98.373 635.346 98.45 635.413 98.373 635.449 98.296 635.414" style="fill:#005776;"/><polygon points="99.296 635.414 99.373 635.346 99.45 635.413 99.373 635.449 99.296 635.414" style="fill:#005776;"/><polygon points="100.296 635.414 100.373 635.346 100.45 635.413 100.373 635.449 100.296 635.414" style="fill:#005776;"/><polygon points="101.296 635.414 101.373 635.346 101.45 635.413 101.373 635.449 101.296 635.414" style="fill:#005776;"/><polygon points="102.296 635.414 102.373 635.346 102.45 635.413 102.373 635.449 102.296 635.414" style="fill:#005776;"/><polygon points="103.296 635.414 103.373 635.346 103.45 635.413 103.373 635.449 103.296 635.414" style="fill:#005776;"/><polygon points="104.296 635.414 104.373 635.346 104.45 635.413 104.373 635.449 104.296 635.414" style="fill:#005776;"/><polygon points="105.296 635.414 105.373 635.346 105.45 635.413 105.373 635.449 105.296 635.414" style="fill:#005776;"/><polygon points="106.296 635.414 106.373 635.346 106.45 635.413 106.373 635.449 106.296 635.414" style="fill:#005776;"/><polygon points="107.296 635.414 107.373 635.346 107.45 635.413 107.373 635.449 107.296 635.414" style="fill:#005776;"/><polygon points="108.296 635.414 108.373 635.346 108.45 635.413 108.373 635.449 108.296 635.414" style="fill:#005776;"/><polygon points="109.296 635.414 109.373 635.346 109.45 635.413 109.373 635.449 109.296 635.414" style="fill:#005776;"/><polygon points="110.296 635.414 110.373 635.346 110.45 635.413 110.373 635.449 110.296 635.414" style="fill:#005776;"/><polygon points="111.296 635.414 111.373 635.346 111.45 635.413 111.373 635.449 111.296 635.414" style="fill:#005776;"/><polygon points="112.296 635.414 112.373 635.346 112.45 635.413 112.373 635.449 112.296 635.414" style="fill:#005776;"/><polygon points="90.298 635.413 90.374 635.345 90.448 635.412 90.373 635.448 90.298 635.413" style="fill:#005776;"/><polygon points="114.296 635.414 114.373 635.346 114.45 635.413 114.373 635.449 114.296 635.414" style="fill:#005776;"/><polygon points="115.296 635.414 115.373 635.346 115.45 635.413 115.373 635.449 115.296 635.414" style="fill:#005776;"/><polygon points="116.296 635.414 116.373 635.346 116.45 635.413 116.373 635.449 116.296 635.414" style="fill:#005776;"/><polygon points="117.294 635.414 117.373 635.345 117.452 635.414 117.373 635.45 117.294 635.414" style="fill:#005776;"/><polygon points="118.296 635.414 118.373 635.346 118.45 635.414 118.373 635.45 118.296 635.414" style="fill:#005776;"/><polygon points="119.295 635.415 119.373 635.347 119.449 635.414 119.372 635.45 119.295 635.415" style="fill:#005776;"/><polygon points="120.302 635.416 120.373 635.35 120.443 635.416 120.372 635.452 120.302 635.416" style="fill:#005776;"/><polygon points="121.3 635.416 121.374 635.348 121.448 635.415 121.374 635.451 121.3 635.416" style="fill:#005776;"/><polygon points="122.296 635.415 122.374 635.347 122.451 635.414 122.373 635.45 122.296 635.415" style="fill:#005776;"/><polygon points="123.297 635.414 123.374 635.346 123.45 635.414 123.373 635.45 123.297 635.414" style="fill:#005776;"/><polygon points="89.298 635.411 89.374 635.344 89.448 635.412 89.373 635.448 89.298 635.411" style="fill:#005776;"/><polygon points="125.296 635.414 125.373 635.346 125.45 635.413 125.373 635.449 125.296 635.414" style="fill:#005776;"/><polygon points="126.296 635.414 126.373 635.346 126.45 635.413 126.373 635.449 126.296 635.414" style="fill:#005776;"/><polygon points="127.296 635.414 127.373 635.346 127.45 635.413 127.373 635.449 127.296 635.414" style="fill:#005776;"/><polygon points="128.296 635.414 128.373 635.346 128.45 635.413 128.373 635.449 128.296 635.414" style="fill:#005776;"/><polygon points="129.296 635.414 129.373 635.346 129.45 635.413 129.373 635.449 129.296 635.414" style="fill:#005776;"/><polygon points="130.296 635.414 130.373 635.346 130.45 635.413 130.373 635.449 130.296 635.414" style="fill:#005776;"/><polygon points="131.296 635.414 131.373 635.346 131.45 635.413 131.373 635.449 131.296 635.414" style="fill:#005776;"/><polygon points="132.296 635.414 132.373 635.346 132.45 635.413 132.373 635.449 132.296 635.414" style="fill:#005776;"/><polygon points="133.296 635.414 133.373 635.346 133.45 635.413 133.373 635.449 133.296 635.414" style="fill:#005776;"/><polygon points="134.296 635.414 134.373 635.346 134.45 635.413 134.373 635.449 134.296 635.414" style="fill:#005776;"/><polygon points="135.296 635.414 135.373 635.346 135.45 635.413 135.373 635.449 135.296 635.414" style="fill:#005776;"/><polygon points="136.296 635.414 136.373 635.346 136.45 635.413 136.373 635.449 136.296 635.414" style="fill:#005776;"/><polygon points="137.296 635.414 137.373 635.346 137.45 635.413 137.373 635.449 137.296 635.414" style="fill:#005776;"/><polygon points="138.296 635.414 138.373 635.346 138.45 635.413 138.373 635.449 138.296 635.414" style="fill:#005776;"/><polygon points="139.296 635.414 139.373 635.346 139.45 635.413 139.373 635.449 139.296 635.414" style="fill:#005776;"/><polygon points="140.296 635.414 140.373 635.346 140.45 635.413 140.373 635.449 140.296 635.414" style="fill:#005776;"/><polygon points="141.296 635.414 141.373 635.346 141.45 635.413 141.373 635.449 141.296 635.414" style="fill:#005776;"/><polygon points="142.296 635.414 142.373 635.346 142.45 635.413 142.373 635.449 142.296 635.414" style="fill:#005776;"/><polygon points="143.296 635.414 143.373 635.346 143.45 635.413 143.373 635.449 143.296 635.414" style="fill:#005776;"/><polygon points="144.296 635.414 144.373 635.346 144.45 635.413 144.373 635.449 144.296 635.414" style="fill:#005776;"/><polygon points="145.296 635.414 145.373 635.346 145.45 635.413 145.373 635.449 145.296 635.414" style="fill:#005776;"/><polygon points="146.296 635.414 146.373 635.346 146.45 635.413 146.373 635.449 146.296 635.414" style="fill:#005776;"/><polygon points="147.296 635.414 147.373 635.346 147.45 635.413 147.373 635.449 147.296 635.414" style="fill:#005776;"/><polygon points="148.296 635.414 148.373 635.346 148.45 635.413 148.373 635.449 148.296 635.414" style="fill:#005776;"/><polygon points="149.296 635.414 149.373 635.346 149.45 635.413 149.373 635.449 149.296 635.414" style="fill:#005776;"/><polygon points="150.296 635.414 150.373 635.346 150.45 635.413 150.373 635.449 150.296 635.414" style="fill:#005776;"/><polygon points="151.296 635.414 151.373 635.346 151.45 635.413 151.373 635.449 151.296 635.414" style="fill:#005776;"/><polygon points="152.296 635.414 152.373 635.346 152.45 635.413 152.373 635.449 152.296 635.414" style="fill:#005776;"/><polygon points="153.296 635.414 153.373 635.346 153.45 635.413 153.373 635.449 153.296 635.414" style="fill:#005776;"/><polygon points="154.296 635.414 154.373 635.346 154.45 635.413 154.373 635.449 154.296 635.414" style="fill:#005776;"/><polygon points="155.296 635.414 155.373 635.346 155.45 635.413 155.373 635.449 155.296 635.414" style="fill:#005776;"/><polygon points="156.296 635.414 156.373 635.346 156.45 635.413 156.373 635.449 156.296 635.414" style="fill:#005776;"/><polygon points="157.296 635.414 157.373 635.346 157.45 635.413 157.373 635.449 157.296 635.414" style="fill:#005776;"/><polygon points="158.296 635.414 158.373 635.346 158.45 635.413 158.373 635.449 158.296 635.414" style="fill:#005776;"/><polygon points="159.296 635.414 159.373 635.346 159.45 635.413 159.373 635.449 159.296 635.414" style="fill:#005776;"/><polygon points="124.296 635.414 124.373 635.346 124.45 635.413 124.373 635.449 124.296 635.414" style="fill:#005776;"/><polygon points="161.296 635.414 161.373 635.346 161.45 635.413 161.373 635.449 161.296 635.414" style="fill:#005776;"/><polygon points="162.296 635.414 162.373 635.346 162.45 635.413 162.373 635.449 162.296 635.414" style="fill:#005776;"/><polygon points="163.296 635.414 163.373 635.346 163.45 635.413 163.373 635.449 163.296 635.414" style="fill:#005776;"/><polygon points="164.296 635.414 164.373 635.346 164.45 635.413 164.373 635.449 164.296 635.414" style="fill:#005776;"/><polygon points="165.296 635.414 165.373 635.346 165.45 635.413 165.373 635.449 165.296 635.414" style="fill:#005776;"/><polygon points="166.296 635.414 166.373 635.346 166.45 635.413 166.373 635.449 166.296 635.414" style="fill:#005776;"/><polygon points="167.296 635.414 167.373 635.346 167.45 635.413 167.373 635.449 167.296 635.414" style="fill:#005776;"/><polygon points="168.296 635.414 168.373 635.346 168.45 635.413 168.373 635.449 168.296 635.414" style="fill:#005776;"/><polygon points="169.296 635.414 169.373 635.346 169.45 635.413 169.373 635.449 169.296 635.414" style="fill:#005776;"/><polygon points="170.296 635.414 170.373 635.346 170.45 635.413 170.373 635.449 170.296 635.414" style="fill:#005776;"/><polygon points="171.296 635.414 171.373 635.346 171.45 635.413 171.373 635.449 171.296 635.414" style="fill:#005776;"/><polygon points="172.296 635.414 172.373 635.346 172.45 635.413 172.373 635.449 172.296 635.414" style="fill:#005776;"/><polygon points="173.296 635.414 173.373 635.346 173.45 635.413 173.373 635.449 173.296 635.414" style="fill:#005776;"/><polygon points="174.296 635.414 174.373 635.346 174.45 635.413 174.373 635.449 174.296 635.414" style="fill:#005776;"/><polygon points="175.296 635.414 175.373 635.346 175.45 635.413 175.373 635.449 175.296 635.414" style="fill:#005776;"/><polygon points="176.294 635.414 176.373 635.345 176.452 635.414 176.373 635.45 176.294 635.414" style="fill:#005776;"/><polygon points="177.294 635.414 177.373 635.346 177.451 635.414 177.372 635.45 177.294 635.414" style="fill:#005776;"/><polygon points="178.299 635.415 178.374 635.347 178.447 635.414 178.373 635.45 178.299 635.415" style="fill:#005776;"/><polygon points="179.299 635.411 179.372 635.343 179.445 635.408 179.372 635.446 179.299 635.411" style="fill:#005776;"/><polygon points="180.303 635.406 180.376 635.339 180.45 635.405 180.377 635.443 180.303 635.406" style="fill:#005776;"/><polygon points="181.314 635.405 181.37 635.344 181.423 635.406 181.368 635.442 181.314 635.405" style="fill:#005776;"/><polygon points="113.296 635.414 113.373 635.346 113.45 635.413 113.373 635.449 113.296 635.414" style="fill:#005776;"/><path d="m182.933,433.361c.025,1.456.07,2.913.071,4.369.015,17.788.023,35.576.03,53.364,0,.361-.044.721-.072,1.152-.345-.055-.606-.04-.814-.138-2.407-1.133-4.797-2.3-7.209-3.422-2.259-1.051-4.544-2.046-6.808-3.085-4.756-2.182-9.51-4.368-14.257-6.569-4.068-1.886-8.118-3.81-12.188-5.691-2.185-1.01-4.404-1.947-6.592-2.953-3.094-1.423-6.171-2.884-9.258-4.321-2.291-1.066-4.588-2.121-6.882-3.18-.358-.685-.105-1.149.58-1.34,2.265-.629,4.273-1.856,6.381-2.822,7.144-3.275,14.293-6.541,21.42-9.855,5.732-2.665,11.492-5.271,17.222-7.94,4.939-2.3,9.883-4.588,14.877-6.768.729-.318,1.358-.812,2.069-1.161.572-.281,1.12-.422,1.429.359Z" style="fill:#0098d0;"/><path d="m182.933,433.361c-.368.03-.783-.042-1.097.105-2.9,1.351-5.776,2.754-8.672,4.114-4.026,1.891-8.06,3.761-12.095,5.633-2.188,1.015-4.386,2.008-6.576,3.02-4.224,1.95-8.441,3.915-12.669,5.857-2.304,1.058-4.631,2.063-6.934,3.123-4.604,2.118-9.197,4.261-13.8,6.382-.41.189-.897.227-1.28.451-.335.196-.573.556-.854.843-6.551-2.991-13.102-5.982-20.051-9.155.837-.569,1.309-.994,1.86-1.25,4.444-2.062,8.9-4.1,13.359-6.131,3.89-1.772,7.795-3.513,11.682-5.293,3.776-1.73,7.532-3.502,11.305-5.237,4.3-1.977,8.618-3.915,12.913-5.902,3.842-1.777,7.662-3.604,11.497-5.396,3.425-1.601,6.854-3.191,10.287-4.774,3.054-1.409,6.114-2.806,9.176-4.198.59-.268,1.2-.49,1.886-.768.101.345.204.532.204.718-.019,5.83-.048,11.66-.078,17.491,0,.123-.041.246-.062.369Z" style="fill:#005776;"/></svg>